<svg width="155" height="44" viewBox="0 0 155 44" fill="none" xmlns="http://www.w3.org/2000/svg">
<g clip-path="url(#clip0_176_6220)">
<path opacity="0.7" d="M0 11.3422V32.6577H11.8879L0 11.3422Z" fill="#5D2ECE"/>
<path opacity="0.7" d="M17.9669 0.684357L0 11.3421H23.9109L17.9669 0.684357Z" fill="#5D2ECE"/>
<path d="M35.933 11.3421L17.9661 0.684357L23.91 11.3421H35.933Z" fill="#5D2ECE"/>
<path opacity="0.7" d="M17.9668 43.3156L35.9338 32.6578H11.8878L17.9668 43.3156Z" fill="#5D2ECE"/>
<path opacity="0.7" d="M23.9119 11.3421L35.9348 32.6576V11.3421H23.9119Z" fill="#5D2ECE"/>
<path d="M0 32.6577L17.9669 43.3155L11.8879 32.6577H0Z" fill="#5D2ECE"/>
<path d="M93.2986 43.1668V32.5291H97.1269C99.3252 32.5291 100.626 33.3622 100.626 35.2964V35.3559C100.626 36.4122 100.148 37.2454 98.9364 37.6173C100.387 37.9298 101.075 38.7183 101.075 40.1317V40.1912C101.075 42.17 99.7589 43.1668 97.4111 43.1668H93.2986ZM95.2426 41.7534H97.1718C98.5027 41.7534 99.1159 41.1583 99.1159 40.0573V39.9978C99.1159 38.8969 98.5027 38.3464 97.0372 38.3464H95.2426V41.7534ZM95.2426 37.0073H96.8876C98.2036 37.0073 98.7121 36.5312 98.7121 35.4452V35.3856C98.7121 34.3739 98.1289 33.9425 96.8577 33.9425H95.2426V37.0073Z" fill="#4E4B66"/>
<path d="M105.405 43.3156C103.864 43.3156 102.713 42.4378 102.713 40.3698V35.3856H104.522V40.1615C104.522 41.3368 105.016 41.8725 106.063 41.8725C107.035 41.8725 107.887 41.2476 107.887 40.0127V35.3856H109.697V43.1668H107.887V41.9468C107.498 42.7056 106.676 43.3156 105.405 43.3156Z" fill="#4E4B66"/>
<path d="M114.519 43.3156C112.5 43.3156 111.319 42.3932 111.244 40.7417H112.949C113.039 41.5303 113.442 41.9915 114.504 41.9915C115.476 41.9915 115.91 41.6493 115.91 40.9946C115.91 40.3549 115.386 40.1168 114.235 39.9234C112.171 39.5961 111.409 39.0159 111.409 37.5578C111.409 35.9956 112.874 35.222 114.34 35.222C115.94 35.222 117.211 35.8171 117.405 37.5727H115.73C115.581 36.8586 115.177 36.5312 114.34 36.5312C113.562 36.5312 113.098 36.9032 113.098 37.4537C113.098 38.019 113.472 38.2422 114.713 38.4505C116.553 38.7332 117.645 39.1795 117.645 40.831C117.645 42.4081 116.523 43.3156 114.519 43.3156Z" fill="#4E4B66"/>
<path d="M119.277 43.1668V35.3856H121.086V43.1668H119.277ZM120.159 34.1061C119.561 34.1061 119.082 33.6598 119.082 33.0795C119.082 32.4844 119.561 32.0381 120.159 32.0381C120.757 32.0381 121.236 32.4844 121.236 33.0795C121.236 33.6598 120.757 34.1061 120.159 34.1061Z" fill="#4E4B66"/>
<path d="M123.292 43.1668V35.3856H125.101V36.6205C125.475 35.8617 126.342 35.222 127.629 35.222C129.199 35.222 130.305 36.1295 130.305 38.272V43.1668H128.496V38.4356C128.496 37.2603 128.017 36.7247 126.941 36.7247C125.924 36.7247 125.101 37.3495 125.101 38.5844V43.1668H123.292Z" fill="#4E4B66"/>
<path d="M135.83 43.3156C133.527 43.3156 131.867 41.8129 131.867 39.3581V39.239C131.867 36.8288 133.527 35.222 135.755 35.222C137.699 35.222 139.449 36.3676 139.449 39.1498V39.6705H133.721C133.781 41.1434 134.529 41.9766 135.875 41.9766C136.966 41.9766 137.534 41.5451 137.669 40.7864H139.419C139.165 42.4229 137.834 43.3156 135.83 43.3156ZM133.751 38.4654H137.654C137.564 37.1264 136.876 36.5312 135.755 36.5312C134.663 36.5312 133.93 37.2603 133.751 38.4654Z" fill="#4E4B66"/>
<path d="M143.815 43.3156C141.796 43.3156 140.615 42.3932 140.54 40.7417H142.245C142.334 41.5303 142.738 41.9915 143.8 41.9915C144.772 41.9915 145.206 41.6493 145.206 40.9946C145.206 40.3549 144.682 40.1168 143.531 39.9234C141.467 39.5961 140.704 39.0159 140.704 37.5578C140.704 35.9956 142.17 35.222 143.635 35.222C145.235 35.222 146.507 35.8171 146.701 37.5727H145.026C144.877 36.8586 144.473 36.5312 143.635 36.5312C142.858 36.5312 142.394 36.9032 142.394 37.4537C142.394 38.019 142.768 38.2422 144.009 38.4505C145.849 38.7332 146.94 39.1795 146.94 40.831C146.94 42.4081 145.819 43.3156 143.815 43.3156Z" fill="#4E4B66"/>
<path d="M151.204 43.3156C149.186 43.3156 148.004 42.3932 147.929 40.7417H149.634C149.724 41.5303 150.128 41.9915 151.189 41.9915C152.162 41.9915 152.595 41.6493 152.595 40.9946C152.595 40.3549 152.072 40.1168 150.92 39.9234C148.857 39.5961 148.094 39.0159 148.094 37.5578C148.094 35.9956 149.559 35.222 151.025 35.222C152.625 35.222 153.896 35.8171 154.091 37.5727H152.416C152.266 36.8586 151.862 36.5312 151.025 36.5312C150.247 36.5312 149.784 36.9032 149.784 37.4537C149.784 38.019 150.158 38.2422 151.399 38.4505C153.238 38.7332 154.33 39.1795 154.33 40.831C154.33 42.4081 153.208 43.3156 151.204 43.3156Z" fill="#4E4B66"/>
<path d="M85.1518 29.1359H80.5439V17.7055C80.5439 13.4813 83.9392 9.87823 88.1833 9.87823H90.4873V14.5995H88.1833C86.4857 14.5995 85.1518 15.9661 85.1518 17.7055V29.1359Z" fill="#5D2ECE"/>
<path d="M124.803 29.3845C119.589 29.3845 115.345 24.9118 115.345 19.5693C115.345 14.1027 119.589 9.75415 124.803 9.75415C130.017 9.75415 134.262 14.2269 134.262 19.5693C134.262 25.036 130.017 29.3845 124.803 29.3845ZM124.803 14.4754C122.136 14.4754 119.832 16.836 119.832 19.5693C119.832 22.3027 122.014 24.6633 124.803 24.6633C127.471 24.6633 129.654 22.3027 129.654 19.5693C129.654 16.836 127.471 14.4754 124.803 14.4754Z" fill="#5D2ECE"/>
<path d="M103.462 9.75409H99.8239V14.4753H103.462C106.129 14.4753 108.433 16.8359 108.433 19.5693C108.433 22.3026 106.251 24.6632 103.462 24.6632H102.613C99.9452 24.6632 97.6412 22.3026 97.6412 19.5693V0.684357H93.1546V19.5693C93.1546 25.036 97.3987 29.3845 102.613 29.3845H103.462C108.676 29.3845 112.92 24.9117 112.92 19.5693C112.92 14.1026 108.676 9.75409 103.462 9.75409Z" fill="#5D2ECE"/>
<path d="M154.512 29.1359H149.904V18.3268C149.904 16.0904 148.085 14.351 146.024 14.351H145.296C143.113 14.351 141.416 16.2147 141.416 18.3268V29.1359H136.808V18.3268C136.808 13.4813 140.567 9.62979 145.296 9.62979H145.902C150.631 9.62979 154.39 13.4813 154.39 18.3268V29.1359H154.512Z" fill="#5D2ECE"/>
<path d="M55.9274 29.1359H49.7432C44.8928 29.1359 40.8912 25.0359 40.8912 20.0662V19.3207C40.8912 14.351 44.8928 10.251 49.7432 10.251H55.9274V14.9722H49.7432C47.4392 14.9722 45.4991 16.9601 45.4991 19.445V20.1904C45.4991 22.6753 47.4392 24.6632 49.7432 24.6632H55.9274V29.1359Z" fill="#5D2ECE"/>
<path d="M77.7542 29.1361H73.1463V19.5693C73.1463 16.7118 70.8424 14.3511 68.0534 14.3511C64.7794 14.3511 62.718 16.836 62.718 19.0724C62.718 19.3209 62.718 19.6936 62.718 19.8178C62.718 22.3027 64.6581 24.2906 66.9621 24.2906H70.9637V29.0118H66.9621C62.1117 29.0118 58.1101 24.9118 58.1101 19.9421V19.1966C58.1101 13.9784 62.5967 9.75415 68.0534 9.75415C73.3889 9.75415 77.633 14.2269 77.633 19.5693V29.1361H77.7542Z" fill="#5D2ECE"/>
</g>
<defs>
<clipPath id="clip0_176_6220">
<rect width="154.512" height="42.6313" fill="white" transform="translate(0 0.684357)"/>
</clipPath>
</defs>
</svg>
