<svg width="19" height="19" viewBox="0 0 19 19" fill="none" xmlns="http://www.w3.org/2000/svg">
<g clip-path="url(#clip0_180_8373)">
<path d="M16.284 10.5534L11.222 15.6154C10.892 15.9464 10.357 15.9464 10.027 15.6154C9.69699 15.2854 9.69699 14.7504 10.027 14.4204L13.648 10.8004H3.31299C2.84699 10.8004 2.46899 10.4224 2.46899 9.95638C2.46899 9.49038 2.84699 9.11238 3.31299 9.11238H13.648L10.028 5.49037C9.69799 5.16037 9.69799 4.62538 10.028 4.29438C10.358 3.96437 10.893 3.96437 11.223 4.29438L16.286 9.35738C16.445 9.51538 16.534 9.73137 16.534 9.95537C16.533 10.1804 16.444 10.3954 16.284 10.5534Z" fill="#222222"/>
</g>
<defs>
<clipPath id="clip0_180_8373">
<rect width="18" height="18" fill="white" transform="translate(0.5 0.956543)"/>
</clipPath>
</defs>
</svg>
