<svg width="16" height="15" viewBox="0 0 16 15" fill="none" xmlns="http://www.w3.org/2000/svg">
<g clip-path="url(#clip0_180_8379)">
<path d="M8.09569 0.00147555C6.20603 -0.00171528 4.38482 0.708522 2.99622 1.99016C1.60762 3.27181 0.754 5.03038 0.606046 6.91424C0.458092 8.79809 1.02671 10.6684 2.1982 12.1511C3.36969 13.6338 5.0577 14.6196 6.92469 14.9115V9.66948H5.01969V7.50148H6.92469V5.84947C6.92469 3.96947 8.04269 2.93148 9.75669 2.93148C10.5767 2.93148 11.4357 3.07848 11.4357 3.07848V4.92348H10.4907C9.55869 4.92348 9.26769 5.50148 9.26769 6.09448V7.50148H11.3477L11.0157 9.66948H9.26769V14.9105C11.1334 14.6172 12.8198 13.6308 13.9899 12.1483C15.1601 10.6659 15.7279 8.79653 15.5799 6.91371C15.4318 5.03089 14.5789 3.27322 13.1915 1.99183C11.8041 0.710433 9.98431 -0.000347458 8.09569 0.00147555Z" fill="white"/>
</g>
<defs>
<clipPath id="clip0_180_8379">
<rect width="15.0199" height="14.91" fill="white" transform="translate(0.583008 0.00146484)"/>
</clipPath>
</defs>
</svg>
