<svg width="15" height="16" viewBox="0 0 15 16" fill="none" xmlns="http://www.w3.org/2000/svg">
<g clip-path="url(#clip0_239_653)">
<path d="M7.5 0.956543C9.538 0.956543 9.792 0.964543 10.591 1.00154C11.391 1.03854 11.934 1.16454 12.413 1.35054C12.907 1.54054 13.325 1.79854 13.741 2.21454C14.123 2.58954 14.418 3.04354 14.606 3.54454C14.791 4.02154 14.917 4.56654 14.955 5.36454C14.99 6.16454 15 6.41854 15 8.45654C15 10.4945 14.992 10.7485 14.955 11.5475C14.918 12.3475 14.792 12.8905 14.606 13.3695C14.418 13.8695 14.123 14.3235 13.741 14.6975C13.3663 15.0787 12.9131 15.3739 12.413 15.5625C11.935 15.7475 11.39 15.8735 10.591 15.9115C9.792 15.9465 9.538 15.9565 7.5 15.9565C5.462 15.9565 5.208 15.9485 4.409 15.9115C3.609 15.8745 3.066 15.7485 2.587 15.5625C2.08623 15.3746 1.63263 15.0793 1.258 14.6975C0.876947 14.3229 0.582107 13.8697 0.394 13.3695C0.208 12.8915 0.0820001 12.3465 0.0450001 11.5475C0.0100001 10.7495 0 10.4945 0 8.45654C0 6.41854 0.00800008 6.16454 0.0450001 5.36554C0.0820001 4.56554 0.208 4.02254 0.394 3.54354C0.581 3.04354 0.877 2.58954 1.258 2.21454C1.63312 1.83312 2.08704 1.53825 2.588 1.35054C3.066 1.16454 3.609 1.03854 4.408 1.00154C5.209 0.966543 5.463 0.956543 7.5 0.956543ZM7.5 4.70654C6.50544 4.70654 5.55161 5.10163 4.84835 5.80489C4.14509 6.50815 3.75 7.46198 3.75 8.45654C3.75 9.45111 4.14509 10.4049 4.84835 11.1082C5.55161 11.8115 6.50544 12.2065 7.5 12.2065C8.49456 12.2065 9.44839 11.8115 10.1517 11.1082C10.8549 10.4049 11.25 9.45111 11.25 8.45654C11.25 7.46198 10.8549 6.50815 10.1517 5.80489C9.44839 5.10163 8.49456 4.70654 7.5 4.70654ZM12.375 4.51854C12.3791 4.39285 12.3579 4.26762 12.3126 4.15029C12.2674 4.03296 12.199 3.92593 12.1115 3.83557C12.024 3.74521 11.9193 3.67335 11.8035 3.62428C11.6877 3.57521 11.5633 3.54992 11.4375 3.54992C11.3117 3.54992 11.1873 3.57521 11.0715 3.62428C10.9557 3.67335 10.851 3.74521 10.7635 3.83557C10.676 3.92593 10.6076 4.03296 10.5624 4.15029C10.5171 4.26762 10.4959 4.39285 10.5 4.51854C10.5079 4.76188 10.6102 4.9926 10.7852 5.16193C10.9601 5.33125 11.194 5.42592 11.4375 5.42592C11.681 5.42592 11.9149 5.33125 12.0898 5.16193C12.2648 4.9926 12.3671 4.76188 12.375 4.51854ZM7.5 6.20654C8.09674 6.20654 8.66903 6.4436 9.09099 6.86555C9.51295 7.28751 9.75 7.85981 9.75 8.45654C9.75 9.05328 9.51295 9.62558 9.09099 10.0475C8.66903 10.4695 8.09674 10.7065 7.5 10.7065C6.90326 10.7065 6.33097 10.4695 5.90901 10.0475C5.48705 9.62558 5.25 9.05328 5.25 8.45654C5.25 7.85981 5.48705 7.28751 5.90901 6.86555C6.33097 6.4436 6.90326 6.20654 7.5 6.20654Z" fill="white"/>
</g>
<defs>
<clipPath id="clip0_239_653">
<rect width="15" height="15" fill="white" transform="translate(0 0.956543)"/>
</clipPath>
</defs>
</svg>
