<svg width="15" height="15" viewBox="0 0 15 15" fill="none" xmlns="http://www.w3.org/2000/svg">
<g clip-path="url(#clip0_239_655)">
<path d="M3.28799 2.20705C3.28786 2.40404 3.24893 2.59907 3.17343 2.781C3.09793 2.96294 2.98733 3.12823 2.84795 3.26742C2.70857 3.40662 2.54313 3.517 2.3611 3.59226C2.17906 3.66752 1.98398 3.70619 1.78699 3.70605C1.59001 3.70592 1.39498 3.66699 1.21305 3.59149C1.03111 3.51599 0.865823 3.40539 0.726628 3.26601C0.587433 3.12663 0.477054 2.96119 0.401793 2.77916C0.326532 2.59712 0.287863 2.40204 0.287995 2.20506C0.28826 1.80723 0.446549 1.4258 0.728041 1.14469C1.00953 0.86357 1.39117 0.70579 1.78899 0.706055C2.18682 0.70632 2.56825 0.86461 2.84936 1.1461C3.13048 1.42759 3.28826 1.80923 3.28799 2.20705ZM3.33299 4.81705H0.332995V14.2071H3.33299V4.81705ZM8.07299 4.81705H5.088V14.2071H8.04299V9.27905C8.04299 6.53505 11.621 6.27905 11.621 9.27905V14.2071H14.583V8.26006C14.583 3.63206 9.288 3.80505 8.04299 6.07705L8.07299 4.81705Z" fill="white"/>
</g>
<defs>
<clipPath id="clip0_239_655">
<rect width="14.295" height="13.501" fill="white" transform="translate(0.287994 0.706055)"/>
</clipPath>
</defs>
</svg>
