<svg width="16" height="13" viewBox="0 0 16 13" fill="none" xmlns="http://www.w3.org/2000/svg">
<g clip-path="url(#clip0_239_654)">
<path d="M15.287 1.71784C14.715 1.97084 14.107 2.13784 13.486 2.21084C14.1412 1.81903 14.6317 1.20241 14.866 0.475835C14.2503 0.841417 13.5766 1.09881 12.874 1.23684C12.4022 0.731169 11.7765 0.395651 11.0942 0.282497C10.4119 0.169344 9.71135 0.284902 9.10156 0.611187C8.49178 0.937473 8.00695 1.45618 7.72254 2.08659C7.43813 2.717 7.37008 3.42375 7.529 4.09684C6.28188 4.03436 5.06183 3.71032 3.94805 3.14577C2.83428 2.58121 1.85166 1.78876 1.064 0.819835C0.661808 1.51012 0.538232 2.32789 0.718499 3.10619C0.898765 3.8845 1.36928 4.56466 2.034 5.00783C1.5362 4.99215 1.04935 4.85776 0.614 4.61584V4.65484C0.614128 5.37911 0.86471 6.08105 1.32327 6.64167C1.78182 7.20229 2.42014 7.58709 3.13 7.73084C2.66787 7.85602 2.18332 7.87448 1.713 7.78484C1.9133 8.40806 2.30343 8.95307 2.8288 9.3436C3.35417 9.73414 3.98849 9.95065 4.643 9.96284C3.99245 10.474 3.24755 10.8518 2.45087 11.0749C1.6542 11.298 0.821371 11.3618 0 11.2628C1.43362 12.1848 3.10249 12.6744 4.807 12.6728C10.577 12.6728 13.733 7.89283 13.733 3.74683C13.733 3.61184 13.729 3.47584 13.723 3.34184C14.337 2.89816 14.867 2.34856 15.288 1.71884L15.287 1.71784Z" fill="white"/>
</g>
<defs>
<clipPath id="clip0_239_654">
<rect width="15.288" height="12.4326" fill="white" transform="translate(0 0.240234)"/>
</clipPath>
</defs>
</svg>
